<svg width="120" height="120" viewBox="0 0 120 120" fill="none" xmlns="http://www.w3.org/2000/svg">
  <!-- Professional Apple-style logo for ZkVanguard -->
  
  <!-- Rounded square container - iOS app icon style -->
  <rect x="10" y="10" width="100" height="100" rx="22" fill="url(#gradient)"/>
  
  <!-- Gradient definition -->
  <defs>
    <linearGradient id="gradient" x1="10" y1="10" x2="110" y2="110" gradientUnits="userSpaceOnUse">
      <stop offset="0%" stop-color="#007AFF"/>
      <stop offset="100%" stop-color="#0051D5"/>
    </linearGradient>
  </defs>
  
  <!-- Shield icon - clean, geometric -->
  <path d="M60 35L75 40C75 40 76 52 75 62C74 72 60 80 60 80C60 80 46 72 45 62C44 52 45 40 45 40L60 35Z" 
        fill="white" 
        opacity="0.95"/>
  
  <!-- Inner lock symbol - represents zero-knowledge security -->
  <circle cx="60" cy="58" r="4" fill="#007AFF"/>
  <rect x="57" y="58" width="6" height="8" rx="1" fill="#007AFF"/>
  
  <!-- Subtle highlight for depth -->
  <path d="M28 32Q10 10 32 28L88 32Q110 10 88 28L92 88Q110 110 88 92L32 88Q10 110 32 92Z" 
        fill="white" 
        opacity="0.1"/>
</svg>
